<?xml version="1.0" encoding="UTF-8" standalone="no"?>
<svg
   width="1200"
   zoomAndPan="magnify"
   viewBox="0 0 900.00001 899.99996"
   height="1200"
   preserveAspectRatio="xMidYMid"
   version="1.0"
   id="svg61"
   sodipodi:docname="logo_khamar.svg"
   inkscape:export-filename="logo_khamar.png"
   inkscape:export-xdpi="96"
   inkscape:export-ydpi="96"
   inkscape:version="1.4.4 (dcaf3e7, 2026-05-05)"
   xmlns:inkscape="http://www.inkscape.org/namespaces/inkscape"
   xmlns:sodipodi="http://sodipodi.sourceforge.net/DTD/sodipodi-0.dtd"
   xmlns="http://www.w3.org/2000/svg"
   xmlns:svg="http://www.w3.org/2000/svg">
  <sodipodi:namedview
     id="namedview61"
     pagecolor="#ffffff"
     bordercolor="#000000"
     borderopacity="0.25"
     inkscape:showpageshadow="2"
     inkscape:pageopacity="0.0"
     inkscape:pagecheckerboard="0"
     inkscape:deskcolor="#d1d1d1"
     inkscape:zoom="0.4535"
     inkscape:cx="110.25358"
     inkscape:cy="653.80375"
     inkscape:current-layer="svg61" />
  <defs
     id="defs1">
    <g
       id="g1" />
    <clipPath
       id="b55d2de282">
      <path
         d="m 522,267 h 538 V 985.58203 H 522 Z m 0,0"
         clip-rule="nonzero"
         id="path1" />
    </clipPath>
    <clipPath
       id="2e9b7f22fe">
      <rect
         x="0"
         width="360"
         y="0"
         height="44"
         id="rect1" />
    </clipPath>
  </defs>
  <g
     fill="#0e0e0e"
     fill-opacity="1"
     id="g17"
     transform="translate(-454.05027,-267.2551)">
    <g
       transform="translate(697.47444,1188.0275)"
       id="g16">
      <g
         id="g15" />
    </g>
  </g>
  <g
     clip-path="url(#b55d2de282)"
     id="g2"
     transform="translate(-309.40499,-273.34443)"
     style="fill:#f9f9f9">
    <path
       fill="#000000"
       d="m 767.14844,972.51172 c -5.13672,8.59375 -13.44532,9.67187 -22.26563,9.77344 -8.97265,0.1289 -17.63672,-1.97266 -26.35156,-3.58204 -7.26172,-1.33203 -14.46875,-2.78906 -21.75391,-3.96484 -4.6289,-0.74219 -8.97265,-0.38672 -13.39843,0.86719 -8.20313,2.3789 -16.41016,4.83594 -24.69141,6.93359 -6.49219,1.66406 -13.11328,2.86719 -19.88672,2.60938 -3.55469,-0.125 -7.00391,-0.71485 -10.35547,-1.91797 -10.22265,-3.71094 -14.46484,-13.71485 -10.07031,-23.69141 2.30078,-5.21875 6.23828,-9.08203 10.73828,-12.43359 6.61719,-4.9375 13.90625,-8.75 21.26563,-12.41016 4.1914,-2.09765 8.38671,-4.24609 12.57812,-6.32031 5.31641,-2.63281 7.92188,-6.93359 8.38281,-12.79297 0.5625,-7.11328 2.07032,-6.90625 -6.10937,-9.18359 -30.98047,-8.6211 -59.96875,-21.49219 -85.6836,-41.08985 -18.78906,-14.32812 -34.2539,-31.57422 -44.68359,-53.01172 -6.44141,-13.28125 -10.14844,-27.30078 -11.68359,-41.96093 -3.65625,-34.84766 3.34765,-67.75 17.76562,-99.34766 4.67969,-10.26172 10.14844,-20.05859 16.35938,-29.47266 2.32812,-3.53125 2.35156,-3.66015 -0.22657,-6.44921 -9.86718,-10.64454 -14.59765,-23.58985 -16.59375,-37.63672 -2.22265,-15.70703 -1.83984,-31.46875 0.64063,-47.12891 6.10937,-38.40234 20.09375,-73.68359 42.05078,-105.76953 14.33984,-20.95313 31.98047,-38.8125 51.78906,-54.57031 6.44141,-5.11719 12.91016,-10.21094 19.78516,-14.71485 2.30078,-1.50781 2.89062,-3.14453 2.68359,-5.83203 -0.94531,-11.76953 -0.43359,-23.46094 2.76172,-34.94922 2.6836,-9.64453 6.80078,-18.60156 13.21485,-26.35156 8.53906,-10.28516 19.45312,-15.68359 32.89843,-15.63281 4.2461,0.0234 8.28516,1.09765 12.2461,2.58203 3.91015,1.46094 3.98828,1.48437 6.51953,-1.96875 4.98437,-6.80469 10.48047,-13.10156 17.35547,-18.08984 5.98047,-4.32422 12.60156,-7.08594 19.9375,-7.64844 11.01953,-0.84375 19.91406,3.68359 27.19922,11.64062 7.49218,8.1875 12.19531,18.01172 16.02734,28.29688 0.41016,1.10156 0.84375,2.19922 1.15234,3.32812 0.66407,2.42969 2.17188,3.07032 4.57422,2.53125 4.47266,-1.02343 9.02344,-0.99609 13.5,-0.23047 7.56641,1.30469 13.75,5.14454 18.53125,11.17969 7.15625,9.0586 9.94531,19.65235 10.66016,30.91016 0.28125,4.34765 0.33203,8.75 -0.76953,13.01953 -0.86719,3.40625 0.4375,5.60547 3.14453,7.70312 13.32031,10.23438 25.92187,21.3125 37.44922,33.54297 34.28125,36.35547 56.28906,79.03125 65.57031,128.15625 2.68359,14.19922 3.96094,28.60547 3.24609,43.08594 -0.30859,6.52344 -1.15234,13.02344 -2.3789,19.46875 -0.33203,1.74219 -0.40625,3.25 0.92187,4.65625 1.17578,1.23047 2.375,1.79297 4.01172,0.97266 1.35547,-0.69141 2.68359,-1.38282 4.03906,-2.01953 18.40625,-8.75 37.65231,-14.14844 58.17971,-13.89454 12.2187,0.15235 20.4531,7.29297 23.0312,19.24219 0.6172,2.8125 0.8985,5.62891 0.9493,8.49219 0.2265,12.94531 -2.711,25.30469 -6.9805,37.40625 -1.4297,4.09375 -3.043,8.10937 -4.6016,12.23047 1.7656,1.78906 3.9883,2.17578 5.9063,3.07031 10.0976,4.83594 14.5429,13.48438 13.0351,24.66406 -1.3789,10.23438 -5.9531,19.16407 -10.7617,28.01563 -5.7773,10.64453 -12.6016,20.62109 -19.8594,30.29297 -2.9414,3.9414 -2.8906,3.91406 -0.1562,8.1875 6.5703,10.20703 9,21.26172 6.2109,33.18359 -1.9922,8.51953 -6.7734,15.27344 -14.0078,20.21094 -8.2031,5.60547 -17.4336,8.46875 -27.09374,10.21094 -1.33204,0.23046 -2.63282,0.48437 -3.96485,0.66406 -7.23437,0.89453 -5.85156,0.0781 -6.79687,7.26562 -0.66407,5.01563 -1.30469,9.98047 -2.89063,14.78907 -4.34375,13.22656 -13.59765,20.80078 -27.01953,23.51171 -2.63281,0.53907 -5.31641,1.15235 -7.94922,1.05079 -4.88281,-0.17969 -9.10156,1.43359 -13.44531,3.42968 -18.76172,8.6211 -38.08984,15.78516 -57.77344,22.02735 -10.32422,3.27343 -8.86719,1.27734 -9.09765,12.23047 -0.0274,1.50781 0.10156,3.01953 -0.0274,4.52734 -0.43359,5.16797 2.1211,8.16016 6.75,9.875 7.07813,2.58594 14.1875,5.14453 21.19141,7.95703 7.18359,2.86719 14.03125,6.42188 20.0664,11.35938 3.67969,3.01953 6.77344,6.52734 8.46094,11.08203 2.73438,7.33984 0.51172,14.19922 -6.05859,18.41797 -5.36719,3.42968 -11.42578,4.71093 -17.6875,5.04296 -12.65625,0.66407 -25.12891,-0.92187 -37.47656,-3.40234 -9.94532,-1.99609 -19.48047,-1.76562 -29.16797,1.71094 -9.27735,3.35156 -18.89063,5.91015 -28.73047,7.21484 -6.00781,0.79688 -12.01563,0.8711 -18.02344,-0.125 -6.49219,-1.07422 -11.67969,-3.99219 -15.00391,-9.85156 -0.20312,-0.38281 -0.6914,-0.64063 -1.30468,-1.17578 z M 908.84375,865.58984 c -1.28125,-1.58593 -3.40234,-1.8164 -5.19141,-2.55859 -33.07812,-14.07031 -54.16797,-38.42969 -61.55468,-73.73828 -5.31641,-25.32813 -3.26954,-50.45313 5.49609,-74.85938 5.95703,-16.60547 15.67187,-30.73047 29.26953,-42.08984 14.67188,-12.25391 31.46875,-19.11328 50.71484,-19.03516 7.36329,0.0274 14.57032,1.38282 21.3711,4.63282 -0.53516,0.76562 -1.07422,0.63671 -1.53125,0.5625 -7.39063,-1.28125 -14.77735,-0.51172 -22.01172,0.89453 -29.65234,5.78125 -50.25391,23.23047 -62.08984,50.58203 -10.40625,24.02344 -12.39844,49.27734 -7.64454,75.01562 2.48047,13.40625 7.49219,25.78907 15.59375,36.76563 12.08985,16.34765 28.42579,26.27734 48.03125,30.95703 8.82032,2.10156 17.76563,3.32812 26.91797,2.17578 9.6875,-1.20312 15.49219,-6.70312 17.94532,-15.86328 1.89062,-7.00781 2.68359,-14.17188 1.35546,-21.44141 -0.4375,-2.40234 -0.66406,-4.85937 -0.99609,-7.1875 5.49219,0 10.65625,0.17969 15.82031,-0.0508 9.15235,-0.41015 17.97266,-2.32812 26.10156,-6.70312 11.8359,-6.34766 15.3359,-17.19532 9.7383,-29.42188 -3.4766,-7.60156 -9.125,-13.15234 -16.1289,-17.5039 -1.33205,-0.81641 -3.04299,-1.22657 -4.08986,-2.94141 2.12109,-1.09766 4.16406,-0.97266 6.10936,-0.79297 3.5,0.30859 5.9531,-0.99609 8.1797,-3.73437 8.7656,-10.875 16.793,-22.23438 23.5664,-34.4375 3.3516,-6.01172 6.4688,-12.15235 8.1563,-18.91016 1.6367,-6.52344 -0.1797,-9.89844 -6.6719,-11.76563 -5.4961,-1.61328 -11.1445,-2.2539 -16.9219,-1.5625 -2.3789,0.28125 -4.8086,0.82032 -7.1602,0.0273 0.129,-1.51172 0.8711,-2.25391 1.4571,-3.04688 10.2265,-13.66015 16.6953,-29.01172 20.5547,-45.54297 1.4297,-6.08593 1.9179,-12.27734 1.4804,-18.49609 -0.4062,-5.67969 -3.2695,-8.51953 -8.9179,-8.92969 -2.1758,-0.15234 -4.375,-0.1289 -6.5469,0.10157 -11.7305,1.17968 -23.13282,3.86328 -34.15235,8.16406 -4.31641,1.6875 -8.69141,3.35156 -12.67578,6.34375 3.39844,5.26953 6.74609,10.25781 9.89062,15.375 12.39844,20.23828 21.26951,41.83203 25.17971,65.37109 0.4609,2.71485 0.7422,5.39844 0.1797,8.1875 -13.24222,-36.02344 -33.48831,-67.46875 -60.25003,-95.55859 -5.98438,7.39062 -12.16797,13.60937 -20.6836,16.91015 -0.58593,-1.35546 0.20704,-1.89453 0.69141,-2.48046 9.05078,-11.4375 14.39063,-24.48829 16.87109,-38.8125 2.40235,-13.92188 1.53516,-27.8125 -0.46093,-41.60157 -5.41797,-37.43359 -19.62891,-71.33203 -41.58985,-102.03515 -13.64843,-19.11328 -29.93359,-35.71875 -47.95312,-50.71094 -4.73047,-3.94141 -9.30469,-8.13672 -14.87891,-11.33594 -5.57031,4.27344 -11.04297,8.625 -18.89062,10.26172 1.15234,-1.22656 1.73828,-1.84375 2.27734,-2.45703 10.17188,-11.53906 14.95313,-24.86719 13.51953,-40.29688 -0.40625,-4.55468 -1.48047,-8.92968 -3.55078,-13.02343 -3.47656,-6.88282 -9.35547,-9.97657 -16.94922,-8.98047 -3.16797,0.41015 -6.28906,1.05078 -9.27734,2.17578 -3.58203,1.33203 -7.16016,2.6875 -10.94141,4.09375 -1.71484,-2.78906 -1.63672,-5.91016 -2.32812,-8.77734 -2.6836,-11.15235 -6.23828,-21.94922 -12.60157,-31.64844 -2.32812,-3.53125 -4.98437,-6.72656 -8.5625,-9.08203 -4.24609,-2.78907 -8.6914,-3.375 -13.39453,-1.35547 -4.37109,1.86719 -8.20703,4.55469 -11.58203,7.8789 -5.54687,5.44922 -10.01953,11.71875 -13.90625,18.44922 -1.73828,3.04297 -3.42578,6.11328 -5.11328,9.10938 -2.04297,-0.41016 -3.11719,-1.79297 -4.42187,-2.78906 -2.9375,-2.27735 -6.00391,-4.30079 -9.42969,-5.75782 -7.61719,-3.27734 -15.00781,-3.01953 -22.0625,1.60938 -5.98047,3.9414 -9.76563,9.59765 -12.57422,15.99219 -3.63281,8.23828 -5.24219,16.98828 -5.67578,25.91796 -0.76953,15.86329 2.375,31.03516 8.30859,45.69532 0.50781,1.28125 1.63281,2.48047 1.07031,4.35156 -7.41015,-4.35156 -11.75781,-11.13281 -16.25781,-17.80859 -4.72656,2.04687 -8.2539,5.16796 -12.01172,7.92968 -18.15234,13.20313 -34.71484,28.32422 -48.92968,45.92578 -19.14454,23.69141 -32.53907,50.42969 -41.3086,79.46875 -6.51562,21.6211 -10.73437,43.64844 -8.6914,66.47266 1.20312,13.53125 5.37109,25.86328 14.03515,36.55859 7.38672,9.10938 16.79297,15.32813 27.30078,20.08594 1.4336,0.64063 3.09375,0.94531 4.39844,2.30078 -5.80469,1.61328 -13.90625,1.46094 -20.09375,-0.28125 -6.05859,-1.6875 -6.05859,-1.6875 -9.63672,3.58203 -0.17969,0.28125 -0.38281,0.5625 -0.5625,0.84375 -17.2539,26.19922 -28.88672,54.44532 -31.85156,85.96875 -1.71094,18.0625 -0.79297,35.8711 4.57812,53.29297 7.10547,23.07813 21.29297,41.32032 39.46485,56.6211 19.04687,16.0664 40.72265,27.68359 64.03515,36.30468 26.125,9.67188 53.09375,15.19922 80.87891,17.08985 26.5625,1.82031 52.99219,1.10156 79.19531,-3.50391 33.97266,-5.96094 66.76953,-16.14453 98.69532,-29.1914 0.87109,-0.33204 1.99609,-0.48829 2.27734,-1.94532 z m -59.71484,39.35157 c -4.60157,1.17578 -8.28125,2.17187 -12.01563,3.01953 -2.71094,0.61328 -3.9375,2.22265 -3.98828,4.9375 -0.0234,1.17578 -0.10156,2.35156 -0.23047,3.5039 -0.76562,7.11328 -3.55078,13.22657 -8.89453,18.0625 -3.62891,3.27735 -7.56641,6.08985 -11.83594,8.44532 -6.16015,3.40234 -12.37109,6.70312 -18.45703,10.20703 -2.60547,1.48437 -5.05859,3.30078 -6.79687,5.85937 -3.32422,4.91016 -1.6875,8.67188 4.14062,9.77344 4.39453,0.82031 8.69141,-0.0508 12.96094,-0.71484 8.79297,-1.33204 17.33203,-3.78907 25.76562,-6.60157 10.45703,-3.50781 20.88282,-3.66015 31.67188,-1.43359 10.30078,2.12109 20.75781,3.83594 31.36719,3.48047 2.52734,-0.0781 5.03515,-0.3086 7.35937,-1.35938 4.24609,-1.89062 4.67969,-4.57812 1.10156,-7.51953 -3.24609,-2.66015 -6.90234,-4.73437 -10.66015,-6.60156 -8.25782,-4.12109 -17,-7.0625 -25.58985,-10.41406 -13.1875,-5.14063 -15.33593,-8.28907 -15.59375,-22.38672 -0.0742,-3.09375 -0.20312,-6.24219 -0.30468,-10.25781 z m -162.75782,7.64843 c -0.48437,3.58203 -1.04687,6.88282 -1.40625,10.1836 -0.63672,6.08984 -3.47656,10.79687 -8.61328,14.04687 -2.83594,1.78906 -5.77734,3.42578 -8.74219,4.9375 -8.20703,4.19531 -16.58984,8.0586 -24.5664,12.69141 -3.19531,1.86719 -6.28906,3.86328 -8.74219,6.70312 -1.66016,1.91797 -2.22266,4.16797 -1.25391,6.54688 0.94532,2.38281 3.1211,2.8164 5.39454,2.94531 4.73046,0.25391 9.35546,-0.38672 13.95703,-1.43359 9.48437,-2.14844 18.6875,-5.32422 28.0664,-7.88282 4.03907,-1.09765 8.07813,-2.04687 12.375,-1.48046 10.48047,1.35546 20.83203,3.32421 31.1836,5.37109 6.72656,1.33203 13.47265,2.71094 20.42578,2.42969 1.66015,-0.0508 3.375,0.0508 4.93359,-0.69141 2.96485,-1.42969 3.52735,-4.06641 1.32813,-6.47266 -1.71094,-1.86718 -3.78125,-3.32421 -6.0586,-4.44921 -5.54687,-2.73829 -11.11718,-5.47657 -16.74218,-8.11329 -5.75,-2.71093 -11.70704,-5.03906 -17.35547,-7.98046 -6.39063,-3.32813 -9.5625,-8.51954 -10.125,-15.66016 -0.86719,-11.05078 -0.94532,-11.05078 -11.96094,-11.89453 -0.48828,0 -0.99609,0.10156 -2.09766,0.20312 z m 130.44532,1.05078 c -1.94141,-1.28125 -3.375,-0.61718 -4.83204,-0.35937 -17.17578,3.07031 -34.48046,4.75781 -51.91406,5.24609 -13.24219,0.35547 -26.46094,-0.33593 -39.625,-1.64062 -1.32812,-0.125 -2.68359,-0.10156 -4.01172,-0.0508 -1.125,0.0508 -1.78906,0.71875 -2.04687,1.84375 -0.86719,4.04297 1.43359,9.21093 5.21484,10.92578 4.42188,2.01953 8.97266,3.76172 13.44531,5.6289 7.875,3.30079 15.77344,6.57422 22.87891,11.46094 4.67969,3.19922 8.48828,7.0625 10.04688,12.74219 0.20703,0.69141 0.33203,1.66406 1.83984,1.66406 3.55469,-11.76953 12.65625,-18.32031 23.13672,-23.53906 3.60156,-1.79297 7.20703,-3.55859 10.76172,-5.44922 3.67968,-1.99609 7.33593,-4.07031 10.19922,-7.21484 2.88671,-3.14844 4.77734,-6.75782 4.90625,-11.25782 z M 655.16016,479.58594 c 11.9375,0.0234 18.91406,6.1914 23.36328,14.9414 6.64843,13.09766 5.85547,26.27344 -2.14844,38.73438 -3.16797,4.9375 -7.61719,8.49609 -13.26563,10.28515 -8.25781,2.60938 -15.69531,0.79297 -21.90625,-4.98828 -9.17578,-8.51953 -12.0664,-19.46875 -10.71093,-31.625 0.79297,-7.13672 3.32422,-13.6875 8.25781,-19.08593 4.72656,-5.14063 10.40234,-8.41797 16.41016,-8.26172 z m 0.1289,24.125 c -0.0781,-0.4336 -0.1289,-1.63672 -0.46094,-2.73828 -1.04687,-3.47657 -3.375,-5.44922 -6.36718,-5.5 -3.2461,-0.0508 -5.77735,1.91796 -6.875,5.52734 -0.30469,0.94531 -0.53516,1.94531 -0.58594,2.94141 -0.30859,4.96484 2.96484,9.41406 6.94922,9.54296 4.21875,0.12891 7.3125,-3.71093 7.33984,-9.77343 z m 199.00391,9.00781 c 0.0742,10.84766 -3.50391,19.77734 -11.09375,26.96484 -7.97656,7.54688 -18.6875,8.23828 -27.53125,1.69141 -6.1875,-4.58203 -10.07422,-10.875 -11.65625,-18.26953 -2.8125,-13.30469 -1.17578,-25.78906 8.99609,-35.84375 8.84375,-8.75 21.52344,-8.72656 30.77735,-0.35938 5.59765,5.06641 10.99218,14.8125 10.50781,25.81641 z m -24.41406,-8.08594 c -0.0508,5.14063 3.19531,9.26172 7.23437,9.16016 3.52734,-0.10156 6.98047,-4.58203 6.98047,-9.08203 0,-4.91407 -2.99219,-8.87891 -6.80078,-9.0586 -4.06641,-0.20312 -7.36328,3.8125 -7.41406,8.98047 z m -89.57032,100.85547 c -7.64453,0.25781 -14.28906,-2.76172 -19.91406,-7.87891 -9.20312,-8.33984 -17.35547,-17.73046 -25.41016,-27.14453 -4.01171,-4.71093 -3.98437,-10.4414 -0.0742,-15.19922 8.38281,-10.25781 16.94921,-20.36718 26.40625,-29.65234 1.19921,-1.17578 2.48046,-2.25391 3.83203,-3.25 12.19531,-9.05859 25.6914,-8.39062 36.40234,2.32813 9,9.00781 17.48438,18.52343 26.17578,27.83593 0.23047,0.25782 0.41016,0.53907 0.66406,0.76953 5.03516,4.88672 4.60157,13.14844 -0.33203,18.11329 -8.28125,8.3164 -16.41015,16.78515 -24.92187,24.86718 -6.23828,5.91016 -13.75391,9.46875 -22.82813,9.21094 z m 0.86719,-80.02734 c -2.14453,-0.0274 -5.13672,0.96875 -7.87109,2.76172 -3.65625,2.40625 -7.03125,5.16796 -9.94532,8.4414 -6.54296,7.42188 -13.03515,14.86719 -19.45312,22.38672 -2.78516,3.27734 -2.86328,3.99219 0.15625,7.26953 7.17969,7.75 13.98047,15.83594 21.625,23.12891 0.61328,0.58594 1.22656,1.125 1.89062,1.66015 7.26172,5.96094 15.0586,6.75782 23.36329,2.32813 3.73437,-1.99219 6.8789,-4.78125 9.8164,-7.77734 6.03516,-6.0625 11.96485,-12.20313 17.94531,-18.31641 4.88282,-4.99219 4.96094,-5.375 0.15235,-10.54297 -7.53906,-8.10937 -15.15625,-16.11719 -22.77344,-24.15234 -1.28125,-1.33203 -2.60937,-2.63672 -4.03906,-3.76172 -2.83985,-2.19922 -6.0586,-3.48047 -10.86719,-3.42578 z m 0,0"
       fill-opacity="1"
       fill-rule="nonzero"
       id="path2"
       style="fill:#f9f9f9" />
  </g>
  <g
     fill="#0e0e0e"
     fill-opacity="1"
     id="g5"
     transform="translate(-309.40499,-291.34443)">
    <g
       transform="translate(450.75339,1188.0275)"
       id="g4">
      <g
         id="g3">
        <path
           d="m 62.59375,-4.953125 c -1.542969,1.429687 -3.636719,2.558594 -6.28125,3.390625 -2.636719,0.824219 -5.71875,1.234375 -9.25,1.234375 -3.304688,0 -6.992188,-0.90625 -11.0625,-2.71875 -4.074219,-1.820313 -8.0625,-4.273437 -11.96875,-7.359375 -3.90625,-3.082031 -7.402344,-6.660156 -10.484375,-10.734375 -3.085937,-4.070313 -5.289063,-8.3125 -6.609375,-12.71875 -1.429688,-4.625 -2.390625,-8.75 -2.890625,-12.375 -0.5,-3.632813 -0.75,-6.941406 -0.75,-9.921875 0.332031,-7.039062 0.992187,-13.007812 1.984375,-17.90625 0.988281,-4.90625 2.304688,-9.09375 3.953125,-12.5625 1.65625,-3.46875 3.640625,-6.441406 5.953125,-8.921875 2.3125,-2.476563 4.957031,-4.875005 7.9375,-7.187505 1.101562,0 3.054688,0.52735 5.859375,1.57813 2.8125,1.04297 5.8125,2.640625 9,4.796875 3.195313,2.148437 6.195313,4.789063 9,7.921875 2.8125,3.136719 4.765625,6.851562 5.859375,11.140625 L 52.6875,-74.8125 c -0.4375,-1.101562 -1.125,-2.316406 -2.0625,-3.640625 -0.9375,-1.320313 -2.234375,-2.722656 -3.890625,-4.203125 -1.648437,-1.488281 -3.710937,-3.003906 -6.1875,-4.546875 -2.480469,-1.539063 -5.480469,-2.972656 -9,-4.296875 -2.429687,1.542969 -4.742187,3.746094 -6.9375,6.609375 -2.199219,2.867187 -4.183594,6.058594 -5.953125,9.578125 -0.4375,0.886719 -0.960938,2.265625 -1.5625,4.140625 -0.605469,1.867187 -1.15625,4.09375 -1.65625,6.6875 -0.492188,2.585937 -0.902344,5.390625 -1.234375,8.421875 -0.335937,3.023438 -0.5,6.183594 -0.5,9.484375 0,7.273437 1.15625,13.246094 3.46875,17.921875 2.3125,4.679688 4.984375,8.367188 8.015625,11.0625 3.03125,2.699219 6.03125,4.574219 9,5.625 2.96875,1.042969 5.171875,1.5625 6.609375,1.5625 1.539063,0 3.160156,-0.382812 4.859375,-1.15625 1.707031,-0.769531 3.222656,-1.648438 4.546875,-2.640625 z m 0,0"
           id="path3" />
      </g>
    </g>
  </g>
  <g
     fill="#0e0e0e"
     fill-opacity="1"
     id="g8"
     transform="translate(-309.40499,-291.34443)">
    <g
       transform="translate(497.65332,1188.0275)"
       id="g7">
      <g
         id="g6">
        <path
           d="m 61.609375,-67.21875 v 1.65625 c 0,2.199219 -0.05859,5.804688 -0.171875,10.8125 -0.117188,5.011719 -0.171875,10.492188 -0.171875,16.4375 0,3.523438 0.02344,7.101562 0.07813,10.734375 0.0625,3.636719 0.203125,7.078125 0.421875,10.328125 0.21875,3.242188 0.519531,6.210938 0.90625,8.90625 0.382813,2.699219 0.910156,4.875 1.578125,6.53125 l -13.71875,-8.265625 c -0.65625,-2.863281 -1.125,-6.03125 -1.40625,-9.5 -0.273438,-3.46875 -0.40625,-6.960937 -0.40625,-10.484375 0,-4.945312 0.132812,-9.707031 0.40625,-14.28125 0.28125,-4.570312 0.75,-9.222656 1.40625,-13.953125 -0.875,1.867187 -2.140625,4.203125 -3.796875,7.015625 -1.648437,2.8125 -3.492187,5.511719 -5.53125,8.09375 -2.03125,2.585938 -4.203125,4.789062 -6.515625,6.609375 -2.3125,1.8125 -4.574219,2.71875 -6.78125,2.71875 -2.199219,0 -4.484375,-0.878906 -6.859375,-2.640625 -2.367187,-1.757812 -4.539063,-3.878906 -6.515625,-6.359375 -1.980469,-2.476563 -3.632812,-5.035156 -4.953125,-7.671875 -1.324224,-2.644531 -1.98438,-4.90625 -1.98438,-6.78125 v -23.28125 c 0,-2.644531 -0.085938,-4.765625 -0.25,-6.359375 -0.15625,-1.59375 -0.484375,-3.078125 -0.984375,-4.453125 -0.5,-1.382812 -1.21875,-2.816406 -2.15625,-4.296875 C 3.273438,-97.191406 2.039062,-99.09375 0.5,-101.40625 c 6.601562,-0.65625 12.988281,-0.98438 19.15625,-0.98438 5.28125,0 11.054688,0.30469 17.328125,0.90625 6.28125,0.60547 12.445313,1.73438 18.5,3.39063 6.0625,1.648438 11.707031,4.011719 16.9375,7.09375 5.226563,3.085938 9.492187,7.105469 12.796875,12.0625 -4.292969,-3.082031 -9.246094,-5.5625 -14.859375,-7.4375 -5.617187,-1.875 -11.3125,-3.332031 -17.09375,-4.375 -5.78125,-1.050781 -11.34375,-1.738281 -16.6875,-2.0625 -5.335937,-0.332031 -9.984375,-0.5 -13.953125,-0.5 -2.648438,0 -4.851562,0.03125 -6.609375,0.09375 -1.761719,0.05469 -2.917969,0.132812 -3.46875,0.234375 2.757813,2.199219 4.632813,4.484375 5.625,6.859375 0.988281,2.367188 1.59375,4.648438 1.8125,6.84375 V -50.375 c 0,4.074219 0.988281,6.109375 2.96875,6.109375 1.65625,0 3.773437,-1.265625 6.359375,-3.796875 2.59375,-2.53125 5.097656,-5.691406 7.515625,-9.484375 2.425781,-3.800781 4.519531,-7.875 6.28125,-12.21875 1.757813,-4.351563 2.691406,-8.296875 2.796875,-11.828125 1.988281,0.554688 3.945312,1.382812 5.875,2.484375 1.925781,1.105469 3.601562,2.320313 5.03125,3.640625 1.425781,1.3125 2.582031,2.6875 3.46875,4.125 0.882812,1.429688 1.328125,2.804688 1.328125,4.125 z m 0,0"
           id="path5" />
      </g>
    </g>
  </g>
  <g
     fill="#0e0e0e"
     fill-opacity="1"
     id="g11"
     transform="translate(-309.40499,-291.34443)">
    <g
       transform="translate(575.26991,1188.0275)"
       id="g10">
      <g
         id="g9">
        <path
           d="m 37.484375,-147.98437 c 5.613281,2.42968 10.734375,5.13281 15.359375,8.10937 4.625,2.96875 8.945312,6.24609 12.96875,9.82813 4.019531,3.57421 7.875,7.34374 11.5625,11.31249 3.6875,3.96094 7.347656,8.13672 10.984375,12.53125 -1.324219,-0.32031 -2.78125,-0.67578 -4.375,-1.0625 -1.59375,-0.38281 -3.136719,-0.8789 -4.625,-1.48437 -1.492187,-0.60156 -2.871094,-1.34766 -4.140625,-2.23438 -1.261719,-0.88281 -2.277344,-1.92968 -3.046875,-3.14062 -1.875,-2.64453 -3.914063,-5.47656 -6.109375,-8.5 -2.199219,-3.03125 -4.703125,-5.83594 -7.515625,-8.42187 -2.804687,-2.59375 -5.914063,-4.71094 -9.328125,-6.35938 -3.417969,-1.65625 -7.273438,-2.48437 -11.5625,-2.48437 -1.875,0 -3.695312,0.27734 -5.453125,0.82812 -1.761719,0.55469 -3.578125,1.49219 -5.453125,2.8125 -1.210938,0.875 -2.667969,2.14063 -4.375,3.79688 -1.710938,1.64843 -3.308594,3.49218 -4.796875,5.53124 -1.480469,2.03125 -2.746094,4.26172 -3.796875,6.6875 -1.042969,2.42969 -1.5625,4.85157 -1.5625,7.26563 0,2.53125 0.710938,4.98437 2.140625,7.35937 1.4375,2.36719 3.914063,4.48047 7.4375,6.343755 4.40625,1.875 8.644531,4.65625 12.71875,8.34375 4.070313,3.6875 6.988281,9 8.75,15.9375 -1.429687,-2.863281 -3.601563,-5.476563 -6.515625,-7.84375 -2.917969,-2.363281 -5.949219,-4.398437 -9.09375,-6.109375 -3.136719,-1.707031 -6.136719,-3.023438 -9,-3.953125 -2.855469,-0.9375 -4.890625,-1.40625 -6.109375,-1.40625 2.976563,2.199219 4.960937,4.5625 5.953125,7.09375 0.988281,2.53125 1.484375,4.734375 1.484375,6.609375 V 0 L 7.59375,-12.0625 v -69.859375 c 0,-2.632813 -0.085938,-4.75 -0.25,-6.34375 -0.15625,-1.601563 -0.484375,-3.09375 -0.984375,-4.46875 -0.5,-1.375 -1.21875,-2.773437 -2.15625,-4.203125 C 3.273438,-98.375 2.039062,-100.25 0.5,-102.5625 c 0.320312,0 0.675781,-0.0234 1.0625,-0.0781 0.382812,-0.0625 0.800781,-0.0937 1.25,-0.0937 1.207031,0 3.128906,0.11719 5.765625,0.34375 2.644531,0.21875 5.507813,0.76563 8.59375,1.64063 -1.648437,-0.76953 -3.734375,-1.95313 -6.265625,-3.54688 -2.53125,-1.59375 -4.984375,-3.35156 -7.359375,-5.28125 -2.367187,-1.92578 -4.367187,-3.96093 -6.015625,-6.10937 -1.65625,-2.14453 -2.484375,-4.15625 -2.484375,-6.03125 0,-1.75781 0.828125,-4.23438 2.484375,-7.42187 1.648438,-3.19532 3.867188,-6.36329 6.671875,-9.5 2.8125,-3.14454 6.144531,-5.84375 10,-8.09375 3.851563,-2.25782 7.984375,-3.39063 12.390625,-3.39063 3.632812,0 7.265625,0.71484 10.890625,2.14063 z m 0,0"
           id="path8" />
      </g>
    </g>
  </g>
  <g
     fill="#0e0e0e"
     fill-opacity="1"
     id="g14"
     transform="translate(-309.40499,-291.34443)">
    <g
       transform="translate(602.84838,1188.0275)"
       id="g13">
      <g
         id="g12">
        <path
           d="m 102.23438,-74.65625 c -2.429692,-3.300781 -5.156255,-6.160156 -8.187505,-8.578125 -3.023437,-2.425781 -5.964844,-4.4375 -8.828125,-6.03125 -2.867188,-1.59375 -5.480469,-2.773437 -7.84375,-3.546875 -2.367188,-0.769531 -4.152344,-1.15625 -5.359375,-1.15625 h -0.5 c 2.96875,2.199219 4.921875,4.621094 5.859375,7.265625 0.9375,2.636719 1.40625,4.78125 1.40625,6.4375 V 0 L 66.5625,-12.0625 v -46.890625 c -0.886719,-2.757813 -2.015625,-5.566406 -3.390625,-8.421875 -1.375,-2.863281 -2.835937,-5.5625 -4.375,-8.09375 C 57.253906,-78.007812 55.65625,-80.210938 54,-82.078125 c -1.648438,-1.875 -3.1875,-3.253906 -4.625,-4.140625 -3.742188,0.667969 -6.632812,2.40625 -8.671875,5.21875 -2.03125,2.804688 -3.046875,6.132812 -3.046875,9.984375 0,4.625 1.59375,9.527344 4.78125,14.703125 3.195312,5.167969 8.265625,9.792969 15.203125,13.875 L 51.6875,-42.78125 c -3.40625,-1.207031 -6.984375,-3.460938 -10.734375,-6.765625 -3.742187,-3.300781 -6.933594,-7.15625 -9.578125,-11.5625 -0.21875,4.40625 -1.351562,8.429687 -3.390625,12.0625 -2.03125,3.636719 -4.371094,7.105469 -7.015625,10.40625 -0.4375,0.4375 -0.984375,0.65625 -1.640625,0.65625 -0.992187,0 -2.121094,-0.382813 -3.390625,-1.15625 -1.273438,-0.769531 -2.570312,-1.785156 -3.890625,-3.046875 -1.3125,-1.269531 -2.65625,-2.703125 -4.03125,-4.296875 -1.375,-1.601563 -2.671875,-3.226563 -3.890625,-4.875 6.164062,-2.757813 10.488281,-5.84375 12.96875,-9.25 2.476562,-3.414063 3.71875,-6.882813 3.71875,-10.40625 0,-2.96875 -0.664062,-5.910156 -1.984375,-8.828125 -1.324219,-2.925781 -2.976563,-5.738281 -4.953125,-8.4375 -1.980469,-2.695312 -4.183594,-5.203125 -6.609375,-7.515625 -2.417969,-2.3125 -4.730469,-4.398435 -6.9375,-6.265625 l 3.796875,-1 c 5.613281,4.625 10.15625,8.898438 13.625,12.8125 3.46875,3.90625 6.25,7.679688 8.34375,11.3125 0.113281,-4.625 1.519531,-9 4.21875,-13.125 2.695312,-4.132812 7.398438,-7.800781 14.109375,-11 4.070313,4.742188 8.171875,9.78125 12.296875,15.125 4.132812,5.335938 7.414062,11.140625 9.84375,17.421875 v -9.75 c 0,-0.21875 -0.03125,-1.039063 -0.09375,-2.46875 -0.05469,-1.4375 -0.296875,-3.203125 -0.734375,-5.296875 -0.4375,-2.09375 -1.15625,-4.40625 -2.15625,-6.9375 -0.992187,-2.53125 -2.417969,-4.953125 -4.28125,-7.26563 h 2.96875 c 3.082031,0 6.492187,0.30469 10.234375,0.90625 3.75,0.60547 7.492188,1.871099 11.234375,3.79688 3.738281,1.929688 7.234375,4.710938 10.484375,8.34375 3.25,3.636719 5.92188,8.480469 8.01563,14.53125 z m 0,0"
           id="path11" />
      </g>
    </g>
  </g>
  <g
     fill="#0e0e0e"
     fill-opacity="1"
     id="g20"
     transform="translate(-309.40499,-291.34443)">
    <g
       transform="translate(748.66858,1188.0275)"
       id="g19">
      <g
         id="g18">
        <path
           d="m 92.484375,-74.65625 c -1.542969,-2.96875 -3.746094,-5.660156 -6.609375,-8.078125 -2.855469,-2.425781 -5.855469,-4.460937 -9,-6.109375 -3.136719,-1.65625 -6.109375,-2.921875 -8.921875,-3.796875 -2.804687,-0.882813 -4.808594,-1.328125 -6.015625,-1.328125 h -0.328125 c 3.082031,2.96875 5.117187,5.859375 6.109375,8.671875 0.988281,2.804687 1.484375,5.308594 1.484375,7.515625 V 0 c -2.3125,0 -5.3125,-0.601562 -9,-1.8125 -3.6875,-1.21875 -7.625,-2.785156 -11.8125,-4.703125 -4.1875,-1.925781 -8.402344,-4.179687 -12.640625,-6.765625 -4.242188,-2.59375 -8.070312,-5.238281 -11.484375,-7.9375 -3.40625,-2.695312 -6.183594,-5.421875 -8.328125,-8.171875 C 13.789062,-32.148438 12.71875,-34.6875 12.71875,-37 c 0,-0.4375 0.109375,-1.097656 0.328125,-1.984375 0.65625,-1.976563 1.753906,-3.816406 3.296875,-5.515625 1.539062,-1.707031 3.273438,-3.332031 5.203125,-4.875 1.925781,-1.539062 3.960937,-3.054688 6.109375,-4.546875 2.15625,-1.488281 4.082031,-3.03125 5.78125,-4.625 1.707031,-1.59375 3.140625,-3.328125 4.296875,-5.203125 1.15625,-1.875 1.734375,-3.96875 1.734375,-6.28125 0,-1.976562 -0.527344,-4.175781 -1.578125,-6.59375 -1.042969,-2.425781 -2.828125,-5.125 -5.359375,-8.09375 -0.105469,1.648438 -0.625,3.734375 -1.5625,6.265625 -0.9375,2.53125 -2.152344,4.953125 -3.640625,7.265625 -1.480469,2.3125 -3.132813,4.296875 -4.953125,5.953125 -1.8125,1.648437 -3.65625,2.46875 -5.53125,2.46875 -2.199219,0 -4.234375,-0.820313 -6.109375,-2.46875 -1.875,-1.65625 -3.558594,-3.582031 -5.046875,-5.78125 -1.480469,-2.207031 -2.714844,-4.351563 -3.703125,-6.4375 C 0.992188,-79.546875 0.332031,-81.035156 0,-81.921875 l 5.609375,0.5 c 0.550781,1.875 1.347656,3.28125 2.390625,4.21875 1.050781,0.929687 2.179688,1.390625 3.390625,1.390625 1.988281,0 3.890625,-1.375 5.703125,-4.125 1.8125,-2.75 2.71875,-7.097656 2.71875,-13.046875 v -3.296875 c 0,-1.101562 0.609375,-1.65625 1.828125,-1.65625 0.988281,0 2.859375,0.773438 5.609375,2.3125 2.75,1.542969 5.582031,3.71875 8.5,6.53125 2.925781,2.804688 5.539062,6.15625 7.84375,10.0625 2.3125,3.90625 3.46875,8.230469 3.46875,12.96875 0,2.96875 -0.554688,5.777344 -1.65625,8.421875 -1.09375,2.648437 -2.46875,5.152344 -4.125,7.515625 -1.648438,2.367188 -3.464844,4.542969 -5.453125,6.53125 -1.980469,1.980469 -3.796875,3.824219 -5.453125,5.53125 -1.648438,1.699219 -3.023438,3.242188 -4.125,4.625 -1.09375,1.375 -1.640625,2.558594 -1.640625,3.546875 0,0.992187 1.265625,2.558594 3.796875,4.703125 2.53125,2.148438 5.554688,4.351562 9.078125,6.609375 3.53125,2.261719 7.082031,4.328125 10.65625,6.203125 3.582031,1.867188 6.472656,3.125 8.671875,3.78125 v -73 c 0,-5.0625 -0.496094,-9.050781 -1.484375,-11.96875 -0.992187,-2.914062 -2.859375,-5.804688 -5.609375,-8.67188 h 1.8125 c 3.1875,0 6.757812,0.33594 10.71875,1 3.96875,0.65625 7.878906,1.980474 11.734375,3.968755 3.851563,1.980469 7.429687,4.761719 10.734375,8.34375 3.3125,3.574219 5.898438,8.328125 7.765625,14.265625 z m 0,0"
           id="path17" />
      </g>
    </g>
  </g>
  <g
     fill="#0e0e0e"
     fill-opacity="1"
     id="g23"
     transform="translate(-309.40499,-291.34443)">
    <g
       transform="translate(825.45893,1188.0275)"
       id="g22">
      <g
         id="g21">
        <path
           d="m 0.5,-102.73438 h 2.140625 c 3.082031,0 6.46875,0.27735 10.15625,0.82813 3.6875,0.55469 7.375,1.71094 11.0625,3.46875 3.6875,1.761719 7.207031,4.242188 10.5625,7.4375 3.363281,3.1875 6.3125,7.429688 8.84375,12.71875 v 3.140625 c -1.980469,-3.414063 -4.539063,-6.332031 -7.671875,-8.75 -3.136719,-2.425781 -6.304688,-4.410156 -9.5,-5.953125 -3.1875,-1.539062 -6.054688,-2.695312 -8.59375,-3.46875 -2.53125,-0.769531 -4.183594,-1.15625 -4.953125,-1.15625 2.976563,2.199219 4.960937,4.539062 5.953125,7.015625 0.988281,2.480469 1.484375,4.710937 1.484375,6.6875 V 0 L 7.59375,-12.0625 v -72.828125 c 0,-1.875 -0.109375,-3.46875 -0.328125,-4.78125 -0.21875,-1.320313 -0.605469,-2.613281 -1.15625,-3.875 -0.554687,-1.269531 -1.273437,-2.59375 -2.15625,-3.96875 -0.875,-1.382813 -2.027344,-3.125005 -3.453125,-5.218755 z m 0,0"
           id="path20" />
      </g>
    </g>
  </g>
  <g
     fill="#0e0e0e"
     fill-opacity="1"
     id="g26"
     transform="translate(-309.40499,-291.34443)">
    <g
       transform="translate(861.29495,1188.0275)"
       id="g25">
      <g
         id="g24">
        <path
           d="m 53.671875,-102.73438 c 3.195313,0 6.773437,0.3086 10.734375,0.92188 3.96875,0.60547 7.929688,1.78906 11.890625,3.546875 3.96875,1.761719 7.710937,4.292969 11.234375,7.59375 3.519531,3.304687 6.492188,7.601563 8.921875,12.890625 v 3.125 c -2.3125,-3.40625 -4.960937,-6.316406 -7.9375,-8.734375 -2.96875,-2.425781 -5.914063,-4.4375 -8.828125,-6.03125 -2.917969,-1.601563 -5.589844,-2.757813 -8.015625,-3.46875 -2.417969,-0.71875 -4.230469,-1.078125 -5.4375,-1.078125 2.851563,1.867188 4.722656,4.011719 5.609375,6.4375 0.882812,2.417969 1.328125,4.671875 1.328125,6.765625 V -0.65625 L 60.9375,-12.390625 v -1.3125 c -0.773438,-1.875 -1.871094,-4.050781 -3.296875,-6.53125 C 56.210938,-22.710938 54.5625,-25.300781 52.6875,-28 c -1.875,-2.695312 -3.945312,-5.363281 -6.203125,-8 -2.25,-2.644531 -4.589844,-5.066406 -7.015625,-7.265625 1.101562,2.75 2.039062,5.390625 2.8125,7.921875 0.769531,2.53125 1.15625,4.953125 1.15625,7.265625 0,0.886719 -0.140625,1.992187 -0.421875,3.3125 -0.273437,1.3125 -0.710937,2.578125 -1.3125,3.796875 -0.605469,1.210938 -1.375,2.257812 -2.3125,3.140625 -0.9375,0.875 -2.121094,1.3125 -3.546875,1.3125 -2.09375,0 -4.933594,-0.878906 -8.515625,-2.640625 -3.574219,-1.757812 -7.070313,-4.15625 -10.484375,-7.1875 C 13.425781,-29.375 10.453125,-32.925781 7.921875,-37 5.390625,-41.070312 4.125,-45.421875 4.125,-50.046875 c 0,-3.300781 0.90625,-5.914063 2.71875,-7.84375 1.820312,-1.925781 4.441406,-2.890625 7.859375,-2.890625 2.96875,0 6.4375,0.828125 10.40625,2.484375 L 23.625,-61.265625 c -2.648438,-4.40625 -4.523438,-8.285156 -5.625,-11.640625 -1.105469,-3.363281 -1.65625,-6.3125 -1.65625,-8.84375 0,-2.53125 0.410156,-4.703125 1.234375,-6.515625 0.832031,-1.820313 1.851563,-3.445313 3.0625,-4.875 -4.40625,1.210937 -7.933594,3.109375 -10.578125,5.703125 -2.636719,2.585938 -4.617188,4.917969 -5.9375,7 L -9.25,-91.984375 c 2.867188,-2.757813 7.046875,-5.128906 12.546875,-7.109375 5.507813,-1.97656 11.734375,-2.96875 18.671875,-2.96875 6.050781,0 12.378906,0.96484 18.984375,2.890625 6.613281,1.929687 13.164063,5.367187 19.65625,10.3125 -0.21875,-1.207031 -0.46875,-2.28125 -0.75,-3.21875 -0.273437,-0.9375 -0.683594,-1.925781 -1.234375,-2.96875 -0.542969,-1.039063 -1.230469,-2.164063 -2.0625,-3.375 -0.824219,-1.21875 -1.789062,-2.656255 -2.890625,-4.312505 z M 21.46875,-28.234375 c 0.21875,0.105469 0.550781,0.15625 1,0.15625 1.539062,0 3.160156,-1.179687 4.859375,-3.546875 1.707031,-2.363281 2.5625,-5.640625 2.5625,-9.828125 0,-0.882813 -0.02734,-1.90625 -0.07813,-3.0625 -0.05469,-1.15625 -0.246094,-2.226563 -0.578125,-3.21875 -0.335937,-0.988281 -0.835937,-1.835937 -1.5,-2.546875 -0.65625,-0.71875 -1.589844,-1.078125 -2.796875,-1.078125 -2.75,0.4375 -4.703125,1.921875 -5.859375,4.453125 -1.15625,2.53125 -1.734375,5.230469 -1.734375,8.09375 0,2.53125 0.382812,4.792969 1.15625,6.78125 0.769531,1.980469 1.757812,3.246094 2.96875,3.796875 z m 39.46875,-52.53125 c 0,-1.425781 0,-2.691406 0,-3.796875 0,-1.101562 -0.05469,-2.203125 -0.15625,-3.296875 -4.074219,-1.65625 -7.820312,-2.945313 -11.234375,-3.875 -3.417969,-0.9375 -6.609375,-1.679687 -9.578125,-2.234375 -3.199219,3.742188 -5.460938,7.429688 -6.78125,11.0625 -1.3125,3.636719 -1.96875,7.214844 -1.96875,10.734375 0,3.523437 0.460938,6.964844 1.390625,10.328125 0.9375,3.355469 2.066406,6.625 3.390625,9.8125 7.375,5.074219 15.6875,13.226562 24.9375,24.453125 z m 0,0"
           id="path23" />
      </g>
    </g>
  </g>
  <g
     fill="#0e0e0e"
     fill-opacity="1"
     id="g29"
     transform="translate(-309.40499,-291.34443)">
    <g
       transform="translate(942.04867,1188.0275)"
       id="g28">
      <g
         id="g27">
        <path
           d="m 0.5,-102.73438 h 2.140625 c 3.082031,0 6.46875,0.27735 10.15625,0.82813 3.6875,0.55469 7.375,1.71094 11.0625,3.46875 3.6875,1.761719 7.207031,4.242188 10.5625,7.4375 3.363281,3.1875 6.3125,7.429688 8.84375,12.71875 v 3.140625 c -1.980469,-3.414063 -4.539063,-6.332031 -7.671875,-8.75 -3.136719,-2.425781 -6.304688,-4.410156 -9.5,-5.953125 -3.1875,-1.539062 -6.054688,-2.695312 -8.59375,-3.46875 -2.53125,-0.769531 -4.183594,-1.15625 -4.953125,-1.15625 2.976563,2.199219 4.960937,4.539062 5.953125,7.015625 0.988281,2.480469 1.484375,4.710937 1.484375,6.6875 V 0 L 7.59375,-12.0625 v -72.828125 c 0,-1.875 -0.109375,-3.46875 -0.328125,-4.78125 -0.21875,-1.320313 -0.605469,-2.613281 -1.15625,-3.875 -0.554687,-1.269531 -1.273437,-2.59375 -2.15625,-3.96875 -0.875,-1.382813 -2.027344,-3.125005 -3.453125,-5.218755 z m 0,0"
           id="path26" />
      </g>
    </g>
  </g>
  <g
     fill="#0e0e0e"
     fill-opacity="1"
     id="g32"
     transform="translate(-309.40499,-291.34443)">
    <g
       transform="translate(977.8847,1188.0275)"
       id="g31">
      <g
         id="g30">
        <path
           d="m 15.6875,-10.734375 h 1.328125 c 2.195313,0 4.78125,0.46875 7.75,1.40625 2.976563,0.9375 6.175781,3 9.59375,6.1875 C 33.472656,-1.816406 32.476562,-0.414062 31.375,1.0625 30.28125,2.550781 29.125,3.898438 27.90625,5.109375 26.695312,6.328125 25.457031,7.347656 24.1875,8.171875 22.925781,8.992188 21.742188,9.40625 20.640625,9.40625 19.097656,7.207031 17.800781,4.785156 16.75,2.140625 c -1.042969,-2.632813 -1.5625,-5.550781 -1.5625,-8.75 0,-1.425781 0.164062,-2.800781 0.5,-4.125 z M 86.875,-74.65625 c -2.3125,-3.40625 -4.960938,-6.316406 -7.9375,-8.734375 -2.96875,-2.425781 -5.859375,-4.410156 -8.671875,-5.953125 -2.804687,-1.539062 -5.417969,-2.695312 -7.84375,-3.46875 -2.417969,-0.769531 -4.289063,-1.15625 -5.609375,-1.15625 h -0.5 c 2.644531,1.867188 4.546875,4.398438 5.703125,7.59375 1.15625,3.1875 1.734375,6.054688 1.734375,8.59375 V 0 c -3.855469,-1.320312 -7.984375,-3.082031 -12.390625,-5.28125 -4.40625,-2.207031 -8.8125,-4.660156 -13.21875,-7.359375 -4.398437,-2.695313 -8.664063,-5.503906 -12.796875,-8.421875 -4.125,-2.914062 -7.757812,-5.800781 -10.890625,-8.65625 C 11.316406,-32.582031 8.8125,-35.304688 6.9375,-37.890625 5.0625,-40.484375 4.125,-42.71875 4.125,-44.59375 c 0,-1.320312 0.796875,-3.140625 2.390625,-5.453125 1.601563,-2.3125 3.671875,-4.867187 6.203125,-7.671875 2.53125,-2.8125 5.390625,-5.8125 8.578125,-9 3.195313,-3.195312 6.335937,-6.304688 9.421875,-9.328125 3.082031,-3.03125 6,-5.921875 8.75,-8.671875 2.75,-2.757812 4.953125,-5.128906 6.609375,-7.109375 -2.75,-1.207031 -5.390625,-2.054687 -7.921875,-2.546875 -2.53125,-0.5 -4.953125,-0.75 -7.265625,-0.75 -5.949219,0 -11.152344,1.15625 -15.609375,3.46875 -4.460938,2.3125 -8.398438,5.171875 -11.8125,8.578125 l -12.0625,-8.90625 c 0.773438,-0.769531 2.042969,-1.734375 3.8125,-2.890625 1.761719,-1.15625 3.875,-2.285156 6.34375,-3.390625 2.476562,-1.101563 5.3125,-2.007815 8.5,-2.718755 3.195312,-0.71875 6.722656,-1.07812 10.578125,-1.07812 4.070313,0 8.445313,0.52734 13.125,1.57812 4.6875,1.042974 9.671875,2.882818 14.953125,5.51563 l 0.328125,-0.328125 c -0.65625,-0.875 -1.34375,-1.890625 -2.0625,-3.046875 -0.71875,-1.15625 -1.574219,-2.45313 -2.5625,-3.89063 3.75,0.11719 7.710937,0.53125 11.890625,1.25 4.1875,0.71094 8.234375,2.085942 12.140625,4.125005 3.914063,2.03125 7.492187,4.8125 10.734375,8.34375 3.25,3.523437 5.8125,8.140625 7.6875,13.859375 z m -35.515625,-1.484375 c -2.3125,2.867187 -5.203125,6.0625 -8.671875,9.59375 -3.46875,3.523437 -6.855469,7.015625 -10.15625,10.484375 -3.304688,3.460938 -6.109375,6.761719 -8.421875,9.90625 -2.3125,3.136719 -3.46875,5.695312 -3.46875,7.671875 0,2.09375 1.046875,4.328125 3.140625,6.703125 2.09375,2.367188 4.679688,4.730469 7.765625,7.09375 3.082031,2.367188 6.410156,4.652344 9.984375,6.859375 3.582031,2.199219 6.859375,4.121094 9.828125,5.765625 z m 0,0"
           id="path29" />
      </g>
    </g>
  </g>
  <g
     transform="translate(287.59501,714.65557)"
     id="g61">
    <g
       clip-path="url(#2e9b7f22fe)"
       id="g60">
      <g
         fill="#0e0e0e"
         fill-opacity="1"
         id="g35">
        <g
           transform="translate(5.440058,32.670666)"
           id="g34">
          <g
             id="g33">
            <path
               d="m 27.96875,-27.015625 v 4.78125 H 23.796875 V 0 H 18.0625 v -7.90625 c -1.273438,-1.507812 -2.632812,-2.769531 -4.078125,-3.78125 -1.449219,-1.007812 -2.855469,-1.515625 -4.21875,-1.515625 -0.71875,0 -1.335937,0.167969 -1.84375,0.5 -0.5,0.335937 -0.75,0.859375 -0.75,1.578125 0,0.636719 0.226563,1.171875 0.6875,1.609375 0.46875,0.4375 1.207031,0.859375 2.21875,1.265625 l -2.5625,4.78125 C 5.578125,-4.226562 4.050781,-5.304688 2.9375,-6.703125 1.820312,-8.109375 1.265625,-9.65625 1.265625,-11.34375 c 0,-1.53125 0.359375,-2.800781 1.078125,-3.8125 C 3.070312,-16.175781 4,-16.921875 5.125,-17.390625 c 1.125,-0.476563 2.3125,-0.71875 3.5625,-0.71875 1.789062,0 3.453125,0.367187 4.984375,1.09375 1.539063,0.71875 3.019531,1.730469 4.4375,3.03125 -0.03125,-0.488281 -0.04687,-0.976563 -0.04687,-1.46875 0,-0.5 0,-0.96875 0,-1.40625 v -5.375 h -18.5 v -4.78125 z m 0,0"
               id="path32" />
          </g>
        </g>
      </g>
      <g
         fill="#0e0e0e"
         fill-opacity="1"
         id="g38">
        <g
           transform="translate(32.974882,32.670666)"
           id="g37">
          <g
             id="g36">
            <path
               d="m 13.640625,-27.015625 v 4.78125 H 9.46875 V 0 H 3.734375 V -19.28125 C 3.390625,-20.175781 2.894531,-20.890625 2.25,-21.421875 c -0.636719,-0.539063 -1.460938,-0.8125 -2.46875,-0.8125 H -0.4375 v -4.78125 h 0.875 c 0.664062,0 1.285156,0.179687 1.859375,0.53125 0.582031,0.34375 1.117187,1.078125 1.609375,2.203125 -0.054688,-0.144531 -0.09375,-0.476562 -0.125,-1 C 3.75,-25.800781 3.734375,-26.25 3.734375,-26.625 v -3.265625 h 4.6875 l 1,2.875 z m 0,0"
               id="path35" />
          </g>
        </g>
      </g>
      <g
         fill="#0e0e0e"
         fill-opacity="1"
         id="g41">
        <g
           transform="translate(66.633237,32.670666)"
           id="g40">
          <g
             id="g39">
            <path
               d="m 11.421875,-21.0625 c 2.664063,0 4.785156,0.402344 6.359375,1.203125 1.582031,0.792969 2.71875,1.796875 3.40625,3.015625 0.695312,1.210938 1.046875,2.449219 1.046875,3.71875 0,1.949219 -0.507813,3.515625 -1.515625,4.703125 -1.011719,1.1875 -2.460938,2.085937 -4.34375,2.6875 1.53125,0.554687 3.050781,1.230469 4.5625,2.03125 1.507812,0.792969 2.988281,1.695313 4.4375,2.703125 l -3.046875,4.046875 c -2.71875,-1.96875 -5.761719,-3.644531 -9.125,-5.03125 C 9.847656,-3.378906 6.113281,-4.394531 2,-5.03125 l 0.953125,-4.5625 c 0.988281,0.261719 1.972656,0.464844 2.953125,0.609375 0.988281,0.136719 1.972656,0.203125 2.953125,0.203125 2.75,0 4.703125,-0.390625 5.859375,-1.171875 1.164062,-0.78125 1.75,-1.820313 1.75,-3.125 0,-1.039063 -0.402344,-1.878906 -1.203125,-2.515625 -0.792969,-0.632812 -1.914063,-0.953125 -3.359375,-0.953125 -1.28125,0 -2.179688,0.167969 -2.6875,0.5 -0.5,0.335937 -0.75,0.835937 -0.75,1.5 0,0.34375 0.085938,0.6875 0.265625,1.03125 l -5.390625,0.78125 c -0.179688,-0.425781 -0.324219,-0.921875 -0.4375,-1.484375 -0.117188,-0.570312 -0.171875,-1.101562 -0.171875,-1.59375 0,-1.851562 1.03125,-3.257812 3.09375,-4.21875 C 5.273438,-21.007812 4.332031,-21.742188 3,-22.234375 h -3.4375 v -4.78125 h 25.765625 v 4.78125 H 10.25 c 0.375,0.34375 0.691406,0.734375 0.953125,1.171875 z m 0,0"
               id="path38" />
          </g>
        </g>
      </g>
      <g
         fill="#0e0e0e"
         fill-opacity="1"
         id="g44">
        <g
           transform="translate(91.518847,32.670666)"
           id="g43">
          <g
             id="g42">
            <path
               d="m 13.640625,-27.015625 v 4.78125 H 9.46875 V 0 H 3.734375 V -19.28125 C 3.390625,-20.175781 2.894531,-20.890625 2.25,-21.421875 c -0.636719,-0.539063 -1.460938,-0.8125 -2.46875,-0.8125 H -0.4375 v -4.78125 h 0.875 c 0.664062,0 1.285156,0.179687 1.859375,0.53125 0.582031,0.34375 1.117187,1.078125 1.609375,2.203125 -0.054688,-0.144531 -0.09375,-0.476562 -0.125,-1 C 3.75,-25.800781 3.734375,-26.25 3.734375,-26.625 v -3.265625 h 4.6875 l 1,2.875 z m 0,0"
               id="path41" />
          </g>
        </g>
      </g>
      <g
         fill="#0e0e0e"
         fill-opacity="1"
         id="g47">
        <g
           transform="translate(125.1772,32.670666)"
           id="g46">
          <g
             id="g45">
            <path
               d="m 27.75,-27.015625 v 4.78125 H 23.59375 V 0 h -5.734375 c -1.625,-2.34375 -3.71875,-4.257812 -6.28125,-5.75 -2.5625,-1.5 -5.46875,-2.519531 -8.71875,-3.0625 L 0.6875,-13.9375 c 2.550781,-1.425781 5.332031,-2.800781 8.34375,-4.125 3.007812,-1.332031 6.007812,-2.40625 9,-3.21875 v -0.953125 H -0.4375 v -4.78125 z M 8,-12.078125 c 1.613281,0.324219 3.300781,0.949219 5.0625,1.875 1.769531,0.929687 3.378906,2.140625 4.828125,3.640625 -0.02344,-0.832031 -0.03125,-1.65625 -0.03125,-2.46875 v -7.078125 c -1.710937,0.542969 -3.355469,1.148437 -4.9375,1.8125 -1.574219,0.667969 -3.214844,1.40625 -4.921875,2.21875 z M 7.375,0.53125 c -0.898438,0 -1.652344,-0.3125 -2.265625,-0.9375 -0.605469,-0.625 -0.90625,-1.398438 -0.90625,-2.328125 0,-0.925781 0.300781,-1.695313 0.90625,-2.3125 0.613281,-0.625 1.367187,-0.9375 2.265625,-0.9375 0.894531,0 1.644531,0.3125 2.25,0.9375 0.613281,0.617187 0.921875,1.386719 0.921875,2.3125 0,0.929687 -0.308594,1.703125 -0.921875,2.328125 -0.605469,0.625 -1.355469,0.9375 -2.25,0.9375 z m 0,0"
               id="path44" />
          </g>
        </g>
      </g>
      <g
         fill="#0e0e0e"
         fill-opacity="1"
         id="g50">
        <g
           transform="translate(172.95041,32.670666)"
           id="g49">
          <g
             id="g48" />
        </g>
      </g>
      <g
         fill="#0e0e0e"
         fill-opacity="1"
         id="g53">
        <g
           transform="translate(206.99964,32.670666)"
           id="g52">
          <g
             id="g51">
            <path
               d="m 27.96875,-27.015625 v 4.78125 H 23.796875 V 0 H 18.0625 v -7.90625 c -1.273438,-1.507812 -2.632812,-2.769531 -4.078125,-3.78125 -1.449219,-1.007812 -2.855469,-1.515625 -4.21875,-1.515625 -0.71875,0 -1.335937,0.167969 -1.84375,0.5 -0.5,0.335937 -0.75,0.859375 -0.75,1.578125 0,0.636719 0.226563,1.171875 0.6875,1.609375 0.46875,0.4375 1.207031,0.859375 2.21875,1.265625 l -2.5625,4.78125 C 5.578125,-4.226562 4.050781,-5.304688 2.9375,-6.703125 1.820312,-8.109375 1.265625,-9.65625 1.265625,-11.34375 c 0,-1.53125 0.359375,-2.800781 1.078125,-3.8125 C 3.070312,-16.175781 4,-16.921875 5.125,-17.390625 c 1.125,-0.476563 2.3125,-0.71875 3.5625,-0.71875 1.789062,0 3.453125,0.367187 4.984375,1.09375 1.539063,0.71875 3.019531,1.730469 4.4375,3.03125 -0.03125,-0.488281 -0.04687,-0.976563 -0.04687,-1.46875 0,-0.5 0,-0.96875 0,-1.40625 v -5.375 h -18.5 v -4.78125 z m 0,0"
               id="path50" />
          </g>
        </g>
      </g>
      <g
         fill="#0e0e0e"
         fill-opacity="1"
         id="g56">
        <g
           transform="translate(254.99,32.670666)"
           id="g55">
          <g
             id="g54">
            <path
               d="m 20.9375,0 v -16.984375 c -0.8125,-0.957031 -1.679688,-1.851563 -2.59375,-2.6875 -0.90625,-0.84375 -1.898438,-1.53125 -2.96875,-2.0625 -1.074219,-0.539063 -2.21875,-0.8125 -3.4375,-0.8125 -1.125,0 -2.058594,0.21875 -2.796875,0.65625 -0.742187,0.4375 -1.429687,0.976563 -2.0625,1.609375 0.46875,-0.207031 0.972656,-0.367188 1.515625,-0.484375 0.550781,-0.113281 1.175781,-0.171875 1.875,-0.171875 1.9375,0 3.421875,0.539062 4.453125,1.609375 1.03125,1.074219 1.546875,2.359375 1.546875,3.859375 0,1.742188 -0.632812,3.335938 -1.890625,4.78125 -1.261719,1.449219 -3.183594,2.898438 -5.765625,4.34375 l -3.296875,-4.640625 c 1.675781,-0.757813 3.015625,-1.492187 4.015625,-2.203125 1,-0.707031 1.5,-1.476562 1.5,-2.3125 0,-0.5 -0.152344,-0.882812 -0.453125,-1.15625 -0.304687,-0.28125 -0.820313,-0.421875 -1.546875,-0.421875 -1.125,0 -2.398438,0.382813 -3.8125,1.140625 l -4.5625,-3.65625 c 1.53125,-2.226562 3.175781,-4.070312 4.9375,-5.53125 1.769531,-1.46875 3.816406,-2.203125 6.140625,-2.203125 1.726563,0 3.316406,0.382813 4.765625,1.140625 1.445312,0.75 2.957031,1.851562 4.53125,3.296875 -0.03125,-0.34375 -0.05859,-0.722656 -0.07813,-1.140625 -0.01172,-0.425781 -0.01563,-0.882812 -0.01563,-1.375 v -4.484375 h 4.734375 l 0.953125,2.875 h 4.21875 v 4.78125 H 26.671875 V 0 Z m 0,0"
               id="path53" />
          </g>
        </g>
      </g>
      <g
         fill="#0e0e0e"
         fill-opacity="1"
         id="g59">
        <g
           transform="translate(305.84676,32.670666)"
           id="g58">
          <g
             id="g57">
            <path
               d="m 27.75,-27.015625 v 4.78125 H 23.59375 V 0 h -5.734375 c -1.625,-2.34375 -3.71875,-4.257812 -6.28125,-5.75 -2.5625,-1.5 -5.46875,-2.519531 -8.71875,-3.0625 L 0.6875,-13.9375 c 2.550781,-1.425781 5.332031,-2.800781 8.34375,-4.125 3.007812,-1.332031 6.007812,-2.40625 9,-3.21875 v -0.953125 H -0.4375 v -4.78125 z M 8,-12.078125 c 1.613281,0.324219 3.300781,0.949219 5.0625,1.875 1.769531,0.929687 3.378906,2.140625 4.828125,3.640625 -0.02344,-0.832031 -0.03125,-1.65625 -0.03125,-2.46875 v -7.078125 c -1.710937,0.542969 -3.355469,1.148437 -4.9375,1.8125 -1.574219,0.667969 -3.214844,1.40625 -4.921875,2.21875 z M 7.375,0.53125 c -0.898438,0 -1.652344,-0.3125 -2.265625,-0.9375 -0.605469,-0.625 -0.90625,-1.398438 -0.90625,-2.328125 0,-0.925781 0.300781,-1.695313 0.90625,-2.3125 0.613281,-0.625 1.367187,-0.9375 2.265625,-0.9375 0.894531,0 1.644531,0.3125 2.25,0.9375 0.613281,0.617187 0.921875,1.386719 0.921875,2.3125 0,0.929687 -0.308594,1.703125 -0.921875,2.328125 -0.605469,0.625 -1.355469,0.9375 -2.25,0.9375 z m 0,0"
               id="path56" />
          </g>
        </g>
      </g>
    </g>
  </g>
</svg>
